<svg width="800" height="600" viewBox="0 0 800 600" fill="none" xmlns="http://www.w3.org/2000/svg">
<g clip-path="url(#clip0_1_2)">
<g clip-path="url(#clip1_1_2)">
<g clip-path="url(#clip2_1_2)">
<path d="M381.715 155.12C392.052 150.613 402.971 148.711 414.744 149.613L403.971 189.821C398.094 190.904 392.475 194.011 385.278 199.761L384.152 200.673C383.962 200.828 383.771 200.985 383.579 201.145L382.411 202.12L381.215 203.14L380.606 203.665L379.347 204.769L368.531 214.392C352.63 228.337 340.198 236.577 323.582 242.177C305.59 248.241 285.702 243.009 263.41 228.548L261.886 227.548L260.355 226.52C258.308 225.129 248.294 216.608 246.207 215.067L277.907 189.937L278.527 190.393L279.143 190.841L280.36 191.715L280.96 192.14L282.147 192.967L283.312 193.76L284.456 194.525L285.58 195.259C285.767 195.379 285.951 195.499 286.135 195.615L287.228 196.304C287.588 196.529 287.946 196.749 288.299 196.964L289.351 197.593L290.38 198.195L291.39 198.768C291.723 198.955 292.052 199.135 292.378 199.312L293.344 199.828C293.663 199.995 293.978 200.157 294.29 200.315L295.214 200.776L296.116 201.208L296.996 201.615L297.43 201.807L298.279 202.173C298.976 202.467 299.652 202.733 300.306 202.973L301.079 203.248L301.456 203.376L302.196 203.612C302.439 203.687 302.679 203.759 302.914 203.825L303.61 204.012L303.95 204.096L304.611 204.247C305.155 204.363 305.674 204.453 306.171 204.52L306.755 204.588C308.378 204.749 309.731 204.635 310.806 204.272C318.432 201.703 324.988 198.051 332.648 192.184L333.936 191.185L334.588 190.671L335.91 189.608L337.258 188.501C337.711 188.127 338.171 187.741 338.635 187.351L340.042 186.153L341.482 184.908L342.955 183.615L348.278 178.865L353.447 174.279L355.284 172.683C364.844 164.473 372.627 159.081 381.715 155.12Z" fill="#0DE3D2"/>
</g>
</g>
<g clip-path="url(#clip3_1_2)">
<g clip-path="url(#clip4_1_2)">
<path d="M277.762 190.485L278.762 191.765C311.764 233.805 341.952 256.236 368.286 260.275C374.736 261.264 379.999 260.739 385.659 258.165L374.255 300.723C370.226 300.736 366.202 300.432 362.222 299.812C323.591 293.887 285.276 265.22 246.207 215.067L277.762 190.485Z" fill="#1994E1"/>
</g>
</g>
<g clip-path="url(#clip5_1_2)">
<g clip-path="url(#clip6_1_2)">
<path d="M277.762 190.485L246.206 215.067C247.176 215.784 249.863 218.011 252.664 220.327L253.506 221.024C256.455 223.46 259.355 225.84 260.355 226.52L261.886 227.548L263.41 228.548C285.7 243.009 305.59 248.241 323.58 242.177C324.714 241.795 325.843 241.396 326.964 240.979C311.723 229.576 295.61 213.225 278.762 191.765L277.762 190.485Z" fill="#0B52BF"/>
</g>
</g>
<g clip-path="url(#clip7_1_2)">
<g clip-path="url(#clip8_1_2)">
<path d="M433.387 169.611C435.372 169.763 437.38 169.993 439.415 170.305C477.966 176.219 515.14 203.513 551.676 250.885L527.6 283.507L519.402 271.485C488.902 232.264 459.762 213.893 433.351 209.843C429.455 209.244 425.991 209.2 422.612 209.825L433.387 169.611Z" fill="#0DE3D2"/>
</g>
</g>
<g clip-path="url(#clip9_1_2)">
<g clip-path="url(#clip10_1_2)">
<path d="M478.055 227.941C494.496 222.4 512.879 226.817 534.09 239.595L535.707 240.58C536.803 241.257 537.892 241.947 538.974 242.648L540.622 243.731C542.311 244.851 543.983 245.996 545.639 247.165L547.334 248.372C548.184 248.983 549.039 249.607 549.898 250.24L551.622 251.524L527.6 283.508L526.767 282.885C524.405 281.125 522.003 279.421 519.562 277.773L518.036 276.759C511.482 272.457 505.707 269.396 500.796 267.559C497.832 266.452 495.359 265.857 493.414 265.696C492.143 265.592 491.328 265.679 490.831 265.845C482.358 268.701 475.204 272.892 466.391 279.973L465.055 281.057L464.378 281.616L463.002 282.767C462.77 282.963 462.536 283.16 462.303 283.36L460.879 284.581L460.155 285.209L458.682 286.503L447.392 296.537L446.352 297.436C436.792 305.645 429.01 311.039 419.92 314.999C411.364 318.728 402.408 320.675 392.899 320.723L404.299 278.176C407.236 276.844 410.279 274.96 413.648 272.451L414.715 271.644C415.457 271.074 416.191 270.495 416.918 269.905L418.058 268.973C418.442 268.656 418.831 268.331 419.226 267.997L420.422 266.979L421.031 266.453L422.448 265.209L431.332 257.296L434.003 254.944L435.774 253.413C450.427 240.857 462.379 233.224 478.055 227.941Z" fill="#1994E1"/>
</g>
</g>
<g clip-path="url(#clip11_1_2)">
<g clip-path="url(#clip12_1_2)">
<path d="M478.055 227.941C494.496 222.4 512.879 226.817 534.09 239.595L535.707 240.58C536.803 241.257 537.892 241.947 538.974 242.648L540.622 243.731C542.311 244.851 543.983 245.996 545.639 247.165L547.334 248.372C548.184 248.983 549.039 249.607 549.898 250.24L551.351 251.323L527.6 283.509L519.402 271.487C504.682 252.556 490.278 238.483 476.343 228.532C476.91 228.332 477.479 228.135 478.055 227.941Z" fill="#08BAB6"/>
</g>
</g>
<path d="M149.791 419V361.88H157.551V385.8H175.311V361.88H183.071V419H175.311V393.16H157.551V419H149.791ZM202.191 419V361.88H217.231C221.445 361.88 225.018 362.947 227.951 365.08C230.885 367.16 233.098 370.253 234.591 374.36C236.138 378.467 236.911 383.56 236.911 389.64C236.911 396.04 236.138 401.427 234.591 405.8C233.045 410.12 230.725 413.4 227.631 415.64C224.538 417.88 220.698 419 216.111 419H202.191ZM215.791 411.8C220.271 411.8 223.578 409.96 225.711 406.28C227.845 402.6 228.911 397.107 228.911 389.8C228.911 384.84 228.458 380.84 227.551 377.8C226.645 374.76 225.231 372.547 223.311 371.16C221.391 369.773 218.885 369.08 215.791 369.08H209.871V411.8H215.791ZM271.231 419.8C267.605 419.8 264.538 419.133 262.031 417.8C259.578 416.467 257.711 414.467 256.431 411.8C255.205 409.08 254.591 405.693 254.591 401.64V361.88H262.351V401C262.351 403.827 262.671 406.093 263.311 407.8C264.005 409.507 265.018 410.76 266.351 411.56C267.685 412.36 269.311 412.76 271.231 412.76C273.205 412.76 274.831 412.36 276.111 411.56C277.445 410.76 278.431 409.507 279.071 407.8C279.765 406.04 280.111 403.747 280.111 400.92V361.88H287.871V401.8C287.871 405.8 287.231 409.133 285.951 411.8C284.725 414.413 282.885 416.413 280.431 417.8C277.978 419.133 274.911 419.8 271.231 419.8ZM313.951 393H341.311V398.92H313.951V393ZM378.24 419.88C373.653 419.88 369.76 418.707 366.56 416.36C363.36 414.013 360.907 410.627 359.2 406.2C357.547 401.773 356.72 396.52 356.72 390.44C356.72 386.227 357.173 382.333 358.08 378.76C359.04 375.187 360.453 372.067 362.32 369.4C364.24 366.733 366.56 364.653 369.28 363.16C372.053 361.667 375.253 360.92 378.88 360.92C381.227 360.92 383.467 361.213 385.6 361.8C387.733 362.333 389.76 363.107 391.68 364.12L388.96 370.6C387.573 369.853 386.053 369.24 384.4 368.76C382.747 368.227 380.987 367.96 379.12 367.96C376.667 367.96 374.533 368.547 372.72 369.72C370.907 370.84 369.387 372.44 368.16 374.52C366.987 376.547 366.107 378.92 365.52 381.64C364.933 384.36 364.64 387.32 364.64 390.52C364.64 395.16 365.2 399.16 366.32 402.52C367.44 405.827 369.093 408.387 371.28 410.2C373.52 411.96 376.24 412.84 379.44 412.84C381.36 412.84 383.147 412.627 384.8 412.2C386.453 411.773 388.133 411.213 389.84 410.52V417.64C388.133 418.44 386.373 419 384.56 419.32C382.747 419.693 380.64 419.88 378.24 419.88ZM413.12 419.8C410.88 419.8 408.613 419.533 406.32 419C404.027 418.52 401.947 417.827 400.08 416.92V409.4C402.267 410.36 404.427 411.16 406.56 411.8C408.747 412.387 410.907 412.68 413.04 412.68C415.493 412.68 417.44 412.307 418.88 411.56C420.373 410.76 421.467 409.693 422.16 408.36C422.853 406.973 423.2 405.48 423.2 403.88C423.2 401.96 422.8 400.413 422 399.24C421.2 398.067 420.027 396.973 418.48 395.96C416.933 394.947 415.013 393.853 412.72 392.68C410.64 391.56 408.64 390.333 406.72 389C404.853 387.613 403.333 385.907 402.16 383.88C400.987 381.853 400.4 379.293 400.4 376.2C400.4 372.84 401.067 370.04 402.4 367.8C403.787 365.56 405.733 363.88 408.24 362.76C410.747 361.587 413.68 361 417.04 361C419.333 361 421.573 361.267 423.76 361.8C425.947 362.28 428.133 363.053 430.32 364.12L427.68 370.84C425.867 369.933 424.08 369.24 422.32 368.76C420.613 368.28 418.88 368.04 417.12 368.04C415.093 368.04 413.413 368.36 412.08 369C410.8 369.64 409.84 370.547 409.2 371.72C408.56 372.84 408.24 374.2 408.24 375.8C408.24 377.72 408.64 379.293 409.44 380.52C410.293 381.747 411.493 382.84 413.04 383.8C414.587 384.707 416.48 385.773 418.72 387C421.227 388.28 423.387 389.613 425.2 391C427.067 392.333 428.507 393.96 429.52 395.88C430.587 397.747 431.12 400.2 431.12 403.24C431.12 405.8 430.693 408.12 429.84 410.2C429.04 412.28 427.867 414.04 426.32 415.48C424.827 416.867 422.96 417.933 420.72 418.68C418.48 419.427 415.947 419.8 413.12 419.8ZM447.92 393H475.28V398.92H447.92V393ZM492.769 419L488.689 361.88H495.249C495.409 364.333 495.569 366.787 495.729 369.24C495.889 371.64 496.049 374.013 496.209 376.36C496.369 378.707 496.502 380.92 496.609 383C496.769 385.027 496.902 386.92 497.009 388.68C497.115 389.747 497.195 391.107 497.249 392.76C497.355 394.413 497.435 396.173 497.489 398.04C497.595 399.853 497.702 401.667 497.809 403.48C497.915 405.24 497.995 406.867 498.049 408.36C498.102 409.8 498.129 410.92 498.129 411.72H498.449C498.555 410.707 498.689 409.453 498.849 407.96C499.009 406.467 499.195 404.893 499.409 403.24C499.675 401.587 499.915 399.987 500.129 398.44C500.342 396.84 500.529 395.48 500.689 394.36L503.809 375.88H511.329L514.529 394.52C514.742 395.8 514.955 397.24 515.169 398.84C515.435 400.387 515.675 401.96 515.889 403.56C516.102 405.16 516.289 406.68 516.449 408.12C516.609 409.507 516.742 410.707 516.849 411.72H517.249C517.249 410.867 517.249 409.667 517.249 408.12C517.302 406.573 517.355 404.867 517.409 403C517.462 401.08 517.515 399.187 517.569 397.32C517.622 395.453 517.675 393.747 517.729 392.2C517.782 390.653 517.835 389.453 517.889 388.6C517.942 386.787 518.022 385 518.129 383.24C518.235 381.48 518.342 379.72 518.449 377.96C518.555 376.147 518.662 374.36 518.769 372.6C518.875 370.787 518.982 369 519.089 367.24C519.195 365.427 519.302 363.64 519.409 361.88H526.449L522.529 419H512.849L509.089 394.76C508.875 393.267 508.689 391.907 508.529 390.68C508.369 389.453 508.235 388.333 508.129 387.32C508.022 386.307 507.889 385.347 507.729 384.44H507.409C507.355 385.293 507.249 386.253 507.089 387.32C506.982 388.333 506.822 389.453 506.609 390.68C506.449 391.907 506.262 393.293 506.049 394.84L502.369 419H492.769ZM535.249 419V413.32L545.729 412.44V368.36L535.249 367.56V361.88H563.889V367.56L553.249 368.36V412.44L563.889 413.32V419H535.249ZM574.929 419V361.88H582.529V390.12C583.382 388.84 584.262 387.507 585.169 386.12C586.129 384.68 587.195 383 588.369 381.08L600.529 361.88H609.409L593.249 387.56L610.049 419H601.169L587.489 393.24L582.529 398.36V419H574.929ZM619.249 419V413.32L629.729 412.44V368.36L619.249 367.56V361.88H647.889V367.56L637.249 368.36V412.44L647.889 413.32V419H619.249Z" fill="white"/>
<path d="M299.257 448H297.817V442.672H291.961V448H290.521V436.576H291.961V441.408H297.817V436.576H299.257V448ZM319.845 442.176C319.845 443.456 319.605 444.528 319.125 445.392C318.655 446.256 317.978 446.907 317.093 447.344C316.207 447.781 315.135 448 313.877 448H310.693V436.576H314.213C315.365 436.576 316.362 436.789 317.205 437.216C318.047 437.643 318.698 438.272 319.157 439.104C319.615 439.925 319.845 440.949 319.845 442.176ZM318.325 442.224C318.325 441.211 318.154 440.379 317.813 439.728C317.482 439.077 316.991 438.597 316.341 438.288C315.701 437.968 314.922 437.808 314.005 437.808H312.133V446.768H313.685C315.231 446.768 316.389 446.389 317.157 445.632C317.935 444.864 318.325 443.728 318.325 442.224ZM339.381 443.968C339.381 444.757 339.221 445.472 338.901 446.112C338.581 446.741 338.09 447.243 337.429 447.616C336.778 447.979 335.946 448.16 334.933 448.16C333.514 448.16 332.431 447.776 331.685 447.008C330.949 446.229 330.581 445.205 330.581 443.936V436.576H332.021V443.984C332.021 444.912 332.266 445.632 332.757 446.144C333.258 446.656 334.01 446.912 335.013 446.912C335.706 446.912 336.266 446.789 336.693 446.544C337.13 446.288 337.45 445.941 337.653 445.504C337.855 445.056 337.957 444.544 337.957 443.968V436.576H339.381V443.968ZM354.708 437.28C354.164 436.624 353.044 435.6 352.164 434.896L351.396 435.664C352.276 436.4 353.38 437.472 353.908 438.16L354.708 437.28ZM353.668 446.4V439.616H349.956V440.784H352.468V446.512C352.468 447.184 352.004 447.632 351.7 447.84C351.908 448.096 352.212 448.608 352.324 448.928C352.58 448.592 353.028 448.24 356.004 446.128C355.908 445.888 355.7 445.392 355.62 445.088L353.668 446.4ZM364.452 439.904H360.404V434.672H359.172V439.904H355.108V441.104H359.172V449.232H360.404V441.104H364.452V439.904ZM374.365 445.584V446.576H388.637V445.584H374.365ZM377.501 440.704H385.693V441.632H377.501V440.704ZM377.501 442.416H385.693V443.376H377.501V442.416ZM377.501 439.008H385.693V439.936H377.501V439.008ZM376.285 438.192V444.176H386.941V438.192H376.285ZM383.741 443.968V449.264H384.957V443.968H383.741ZM376.077 435.76V436.752H381.245V435.76H376.077ZM382.253 435.76V436.752H388.493V435.76H382.253ZM376.381 434.496C375.885 435.744 374.989 436.992 374.013 437.808C374.301 437.952 374.781 438.288 375.005 438.464C375.933 437.568 376.909 436.192 377.517 434.8L376.381 434.496ZM382.685 434.496C382.237 435.712 381.405 436.88 380.429 437.648C380.733 437.792 381.245 438.064 381.485 438.256C382.397 437.424 383.325 436.128 383.821 434.768L382.685 434.496ZM377.101 436.544C377.501 437.056 377.885 437.792 378.077 438.256L379.117 437.872C378.941 437.408 378.493 436.704 378.109 436.208L377.101 436.544ZM383.837 436.496C384.365 437.008 384.941 437.776 385.197 438.256L386.205 437.792C385.933 437.28 385.325 436.56 384.797 436.064L383.837 436.496ZM378.445 443.952V445.232C378.445 446.192 378.045 447.568 374.621 448.4C374.877 448.64 375.197 449.04 375.373 449.296C379.085 448.24 379.661 446.624 379.661 445.248V443.952H378.445ZM406.453 435.488V436.624H410.453V435.488H406.453ZM405.733 435.488V440.608C405.733 443.088 405.525 446.288 403.349 448.512C403.621 448.672 404.085 449.056 404.277 449.28C406.581 446.912 406.901 443.28 406.901 440.624V435.488H405.733ZM409.909 435.488V446.912C409.909 448.288 410.005 448.592 410.277 448.816C410.517 449.04 410.885 449.12 411.205 449.12C411.397 449.12 411.781 449.12 412.005 449.12C412.341 449.12 412.629 449.056 412.869 448.912C413.093 448.736 413.237 448.464 413.317 448.016C413.365 447.6 413.429 446.432 413.429 445.52C413.141 445.408 412.757 445.232 412.517 444.992C412.501 446.08 412.485 446.928 412.453 447.28C412.421 447.664 412.373 447.808 412.293 447.888C412.213 447.984 412.101 448.016 411.957 448.016C411.813 448.016 411.605 448.016 411.493 448.016C411.381 448.016 411.285 447.984 411.205 447.92C411.125 447.84 411.109 447.536 411.109 447.024V435.488H409.909ZM398.597 438V439.152H404.789V438H398.597ZM401.269 434.56V449.264H402.421V434.56H401.269ZM401.205 438.704C400.677 441.04 399.445 443.776 398.213 445.216C398.421 445.488 398.725 445.968 398.853 446.304C400.149 444.704 401.397 441.584 402.005 438.976L401.205 438.704ZM402.309 440.464L401.701 441.04C402.261 441.696 403.669 443.488 404.133 444.256L404.869 443.28C404.501 442.816 402.789 440.912 402.309 440.464ZM425.486 435.888V449.248H426.654V435.888H425.486ZM422.782 439.072V440.208H429.022V439.072H422.782ZM425.55 439.504C424.974 441.488 423.694 443.984 422.542 445.264C422.75 445.536 423.038 446.032 423.15 446.368C424.382 444.88 425.662 442.08 426.302 439.824L425.55 439.504ZM428.046 434.784C426.83 435.328 424.734 435.792 422.926 436.08C423.054 436.352 423.214 436.752 423.278 437.024C425.102 436.768 427.31 436.336 428.782 435.76L428.046 434.784ZM426.59 440.416L426.03 440.912C426.51 441.536 427.758 443.44 428.142 444.208L428.894 443.264C428.542 442.784 427.006 440.848 426.59 440.416ZM434.286 434.56V449.264H435.47V434.56H434.286ZM428.83 444.976L429.006 446.112L437.534 444.72L437.342 443.6L428.83 444.976ZM430.126 436.384C431.07 437.024 432.19 437.984 432.702 438.656L433.534 437.872C432.99 437.2 431.854 436.288 430.894 435.68L430.126 436.384ZM429.486 440.544C430.526 441.2 431.742 442.208 432.334 442.912L433.134 442.112C432.542 441.424 431.278 440.464 430.238 439.84L429.486 440.544ZM450.054 439.968V441.024H457.974V439.968H450.054ZM447.366 443.616V444.736H461.51V443.616H447.366ZM453.798 442.448V447.824C453.798 448.064 453.718 448.144 453.398 448.16C453.078 448.176 451.99 448.176 450.758 448.144C450.95 448.464 451.19 448.96 451.27 449.296C452.726 449.296 453.654 449.28 454.23 449.104C454.838 448.928 455.03 448.576 455.03 447.856V442.448H453.798ZM457.606 439.968V440.208C456.854 441.024 455.318 442.08 453.974 442.656C454.182 442.832 454.502 443.152 454.646 443.36C456.166 442.704 457.846 441.6 458.934 440.496L458.166 439.904L457.91 439.968H457.606ZM447.686 437.232V440.8H448.822V438.32H460.054V440.8H461.238V437.232H447.686ZM459.126 434.672C458.678 435.52 457.862 436.704 457.222 437.456L458.166 437.856C458.838 437.152 459.702 436.08 460.374 435.088L459.126 434.672ZM448.774 435.232C449.366 435.92 450.006 436.88 450.262 437.488L451.334 436.976C451.062 436.336 450.406 435.424 449.782 434.752L448.774 435.232ZM452.886 434.88C453.414 435.664 453.942 436.72 454.134 437.392L455.238 436.96C455.046 436.288 454.47 435.248 453.926 434.496L452.886 434.88ZM475.647 437.312C475.151 436.64 474.095 435.616 473.263 434.864L472.463 435.552C473.279 436.336 474.303 437.424 474.783 438.128L475.647 437.312ZM474.799 446.24V439.6H471.455V440.768H473.663V446.288C473.663 447.008 473.151 447.52 472.863 447.728C473.071 447.984 473.391 448.496 473.519 448.8C473.727 448.496 474.127 448.144 476.735 446.128C476.607 445.904 476.415 445.456 476.319 445.12L474.799 446.24ZM479.743 442.608C479.759 442.352 479.759 442.112 479.759 441.856V438.864H482.575V442.608H479.743ZM485.983 442.608H483.775V438.864H485.743V437.696H483.775V434.608H482.575V437.696H479.759V434.624H478.591V437.696H476.431V438.864H478.591V441.856C478.591 442.112 478.591 442.352 478.575 442.608H476.095V443.792H478.527C478.335 445.568 477.791 447.248 476.271 448.464C476.559 448.64 477.007 449.008 477.183 449.232C478.911 447.84 479.503 445.888 479.695 443.792H482.575V449.184H483.775V443.792H485.983V442.608ZM504.311 438.368C503.991 437.328 503.287 435.776 502.679 434.56L501.655 434.944C502.247 436.16 502.951 437.776 503.223 438.816L504.311 438.368ZM507.671 435.792C506.695 438.832 505.255 441.536 503.095 443.712C501.079 441.696 499.543 439.2 498.503 436.464L497.415 436.8C498.551 439.776 500.151 442.416 502.215 444.56C500.471 446.096 498.327 447.312 495.671 448.192C495.895 448.464 496.183 448.912 496.327 449.216C499.063 448.256 501.255 446.976 503.047 445.392C504.871 447.088 507.031 448.384 509.559 449.216C509.735 448.88 510.087 448.4 510.375 448.144C507.911 447.392 505.767 446.144 503.943 444.528C506.215 442.224 507.751 439.408 508.887 436.176L507.671 435.792Z" fill="white"/>
</g>
<defs>
<clipPath id="clip0_1_2">
<rect width="800" height="600" fill="white"/>
</clipPath>
<clipPath id="clip1_1_2">
<rect width="168" height="94.6667" fill="white" transform="translate(246 149.133)"/>
</clipPath>
<clipPath id="clip2_1_2">
<rect width="168" height="94.6667" fill="white" transform="translate(246 149.133)"/>
</clipPath>
<clipPath id="clip3_1_2">
<rect width="140" height="110.667" fill="white" transform="translate(246 190.467)"/>
</clipPath>
<clipPath id="clip4_1_2">
<rect width="140" height="110.667" fill="white" transform="translate(246 190.467)"/>
</clipPath>
<clipPath id="clip5_1_2">
<rect width="81.3333" height="54.6667" fill="white" transform="translate(246 190.467)"/>
</clipPath>
<clipPath id="clip6_1_2">
<rect width="81.3333" height="54.6667" fill="white" transform="translate(246 190.467)"/>
</clipPath>
<clipPath id="clip7_1_2">
<rect width="129.333" height="113.333" fill="white" transform="translate(422 169.133)"/>
</clipPath>
<clipPath id="clip8_1_2">
<rect width="129.333" height="113.333" fill="white" transform="translate(422 169.133)"/>
</clipPath>
<clipPath id="clip9_1_2">
<rect width="158.667" height="94.6667" fill="white" transform="translate(392.667 225.133)"/>
</clipPath>
<clipPath id="clip10_1_2">
<rect width="158.667" height="94.6667" fill="white" transform="translate(392.667 225.133)"/>
</clipPath>
<clipPath id="clip11_1_2">
<rect width="74.6667" height="57.3333" fill="white" transform="translate(476.667 225.133)"/>
</clipPath>
<clipPath id="clip12_1_2">
<rect width="74.6667" height="57.3333" fill="white" transform="translate(476.667 225.133)"/>
</clipPath>
</defs>
</svg>
